<svg version="1.0" xmlns="http://www.w3.org/2000/svg" width="348" height="348" viewBox="0 0 348 348">
    <g transform="translate(0,348) scale(0.100000,-0.100000)" >
        <path d="M1114 3300 c-131 -27 -231 -117 -268 -240 -14 -48 -16 -187 -16
        -1320 0 -1396 -3 -1323 62 -1418 35 -51 105 -104 168 -129 41 -16 101 -18 643
        -21 386 -2 618 1 654 8 115 21 213 94 263 195 l25 50 0 1315 0 1315 -25 50
        c-34 71 -117 148 -187 177 l-58 23 -610 2 c-335 1 -628 -3 -651 -7z m894 -224
        c2 -10 -2 -22 -10 -27 -15 -10 -488 -12 -512 -3 -16 6 -22 35 -9 47 4 4 124 6
        267 5 246 -3 261 -4 264 -22z m480 -312 l22 -15 0 -1001 c0 -918 -1 -1003 -17
        -1020 -15 -17 -52 -18 -751 -18 -670 0 -737 1 -754 17 -17 15 -18 60 -18 1019
        l0 1003 22 15 c20 14 108 16 748 16 640 0 728 -2 748 -16z m-660 -2191 c43
        -31 75 -104 67 -153 -13 -75 -79 -130 -157 -130 -161 0 -210 230 -64 296 41
        19 120 12 154 -13z"/>
    </g>
</svg>
