<?xml version="1.0" standalone="no"?>
<svg version="1.0" xmlns="http://www.w3.org/2000/svg" width="2560" height="853" viewBox="0 0 2560 853" fill="currentColor">
<g transform="translate(0,853) scale(0.100000,-0.100000)" stroke="none">
    <path d="M4490 6279 c-620 -57 -1134 -310 -1485 -730 -213 -254 -361 -579
    -420 -920 -84 -484 10 -1015 252 -1417 87 -145 160 -239 283 -363 344 -346
    797 -547 1353 -599 78 -8 2630 -10 8402 -8 7908 3 8295 4 8395 21 414 71 740
    204 1017 415 450 343 712 848 753 1448 25 363 -41 712 -195 1032 -313 649
    -943 1054 -1748 1121 -152 13 -16470 13 -16607 0z m885 -1614 l540 -874 5 872
    5 872 393 3 392 2 0 -1270 0 -1270 -392 0 -393 0 -545 878 -545 877 -3 -877
    -2 -878 -395 0 -395 0 0 1270 0 1270 398 0 397 0 540 -875z m2535 615 l0 -260
    -385 0 -385 0 0 260 0 260 385 0 385 0 0 -260z m11225 -1010 l0 -1265 -377 -3
    -378 -2 0 45 c0 25 -2 45 -4 45 -2 0 -46 -20 -98 -45 -161 -76 -342 -107 -504
    -86 -194 26 -370 110 -512 245 -174 165 -263 359 -278 606 -16 239 72 468 250
    657 286 304 665 374 1043 194 l103 -50 0 465 0 464 378 -2 377 -3 0 -1265z
    m2663 1240 c213 -49 349 -261 302 -468 -69 -299 -434 -407 -653 -194 -75 73
    -110 148 -115 254 -6 110 15 180 78 261 91 119 249 179 388 147z m-10068 -400
    l0 -170 205 0 205 0 0 -130 0 -130 -205 0 -205 0 0 -840 0 -840 -382 2 -383 3
    -3 838 -2 837 -205 0 -205 0 0 130 0 130 205 0 205 0 0 163 c0 90 3 167 7 170
    3 4 177 7 385 7 l378 0 0 -170z m1660 -336 c430 -77 772 -363 870 -727 10 -40
    22 -102 26 -139 l6 -68 -718 -2 -719 -3 -3 -180 c-1 -99 2 -211 8 -248 26
    -171 130 -275 286 -285 115 -7 202 31 265 116 45 62 61 117 68 242 l6 115 378
    3 c341 2 377 1 377 -14 0 -33 -85 -186 -146 -263 -218 -276 -591 -434 -984
    -417 -264 11 -498 90 -690 233 -75 56 -189 174 -235 243 -57 87 -77 129 -111
    230 -25 77 -28 99 -28 230 -1 122 3 157 22 223 145 503 728 816 1322 711z
    m7412 -7 c221 -58 386 -148 528 -287 179 -175 264 -353 277 -580 25 -453 -325
    -850 -852 -966 -111 -24 -331 -29 -453 -10 -466 71 -824 379 -906 778 -69 336
    96 693 416 902 103 67 180 103 297 140 148 47 220 56 416 52 154 -3 194 -7
    277 -29z m-10915 -21 c198 -42 375 -147 493 -295 63 -79 102 -154 137 -268
    l27 -88 4 -547 3 -548 -380 0 -380 0 -3 588 -3 587 -25 50 c-67 136 -230 215
    -383 185 -119 -23 -225 -101 -270 -198 -22 -46 -22 -56 -25 -630 l-3 -582
    -377 2 -377 3 -3 843 -2 842 382 -2 383 -3 3 -77 c3 -79 9 -91 33 -62 21 25
    121 90 196 128 178 89 371 113 570 72z m6120 13 c92 -12 234 -58 312 -100 153
    -81 261 -192 337 -344 80 -161 84 -196 84 -797 l0 -518 -380 0 -380 0 0 573
    c0 359 -4 586 -10 609 -41 147 -226 258 -386 231 -123 -21 -225 -89 -276 -185
    l-23 -43 -5 -590 -5 -590 -380 0 -380 0 1 45 c1 25 2 404 3 843 l1 797 380 0
    380 0 0 -85 0 -85 62 50 c68 55 203 128 288 155 60 20 192 42 257 44 23 1 77
    -4 120 -10z m-8097 -914 l0 -845 -385 0 -385 0 0 845 0 845 385 0 385 0 0
    -845z"/>
    <path d="M18005 4469 c-52 -12 -125 -63 -154 -105 -53 -77 -55 -94 -59 -468
    -4 -366 2 -446 38 -516 61 -120 211 -177 355 -136 45 14 69 29 111 70 88 88
    90 100 86 546 -3 425 -6 448 -71 522 -68 77 -198 114 -306 87z"/>
    <path d="M21623 5422 c-139 -50 -214 -155 -214 -298 0 -155 115 -286 272 -309
    61 -9 157 16 215 56 154 106 177 326 49 467 -77 86 -216 122 -322 84z m191
    -83 c61 -17 96 -58 96 -112 0 -49 -32 -100 -70 -112 -18 -6 -17 -12 25 -95 25
    -49 45 -94 45 -100 0 -6 -24 -10 -55 -10 l-56 0 -42 90 c-34 72 -46 89 -64 90
    -21 0 -22 -5 -25 -87 l-3 -88 -52 -3 -53 -3 0 220 0 221 108 0 c59 0 125 -5
    146 -11z"/>
    <path d="M21670 5221 l0 -61 48 0 c55 0 82 20 82 62 0 35 -22 50 -80 56 l-50
    5 0 -62z"/>
    <path d="M13070 4563 c-94 -32 -166 -108 -194 -204 -8 -26 -18 -95 -22 -153
    l-7 -106 318 0 317 0 -4 123 c-6 151 -25 204 -103 275 -84 77 -200 102 -305
    65z"/>
    <path d="M20410 4581 c-90 -29 -157 -88 -191 -168 -36 -84 -40 -154 -37 -598
    3 -426 3 -431 27 -489 30 -74 91 -142 156 -172 70 -33 180 -33 250 0 57 26
    119 90 145 150 37 82 41 156 38 596 -4 475 -5 481 -77 575 -53 70 -125 107
    -215 111 -39 2 -82 0 -96 -5z"/>
</g>
</svg>
