<?xml version="1.0" standalone="no"?>
<svg version="1.0" xmlns="http://www.w3.org/2000/svg"
 width="400.000000pt" height="244.000000pt" fill="currentColor" viewBox="0 0 400.000000 244.000000">
<g transform="translate(0.000000,244.000000) scale(0.100000,-0.100000)" stroke="none">
<path d="M0 1220 l0 -1220 2000 0 2000 0 0 1220 0 1220 -2000 0 -2000 0 0
-1220z m1628 657 c23 -15 54 -46 69 -69 l28 -42 0 -381 0 -381 -28 -42 c-15
-23 -46 -54 -69 -69 l-42 -28 -438 -3 -438 -3 0 -209 0 -210 -120 0 -120 0 0
527 0 528 102 102 103 103 -103 0 -102 0 0 105 0 106 558 -3 558 -3 42 -28z
m1695 22 c49 -13 105 -63 128 -114 15 -32 19 -66 19 -167 l0 -128 -120 0 -120
0 0 105 0 105 -390 0 -390 0 0 -525 0 -525 390 0 390 0 0 105 0 105 120 0 120
0 0 -127 c0 -103 -4 -136 -19 -169 -22 -48 -82 -101 -131 -114 -46 -13 -914
-13 -960 0 -49 13 -109 66 -131 114 -17 38 -19 78 -19 611 0 534 2 573 19 610
24 51 68 93 117 110 49 18 916 21 977 4z"/>
<path d="M710 1298 l0 -403 88 88 87 87 303 0 302 0 0 315 0 315 -390 0 -390
0 0 -402z"/>
</g>
</svg>
